<svg xmlns="http://www.w3.org/2000/svg" viewBox="0 0 24 24" width="100%" height="100%">
  <defs>
    <!-- Gradient matching the SmartCV theme (indigo-500 to violet-600) -->
    <linearGradient id="smart-cv-gradient" x1="0%" y1="100%" x2="100%" y2="0%">
      <stop offset="0%" stop-color="#6366f1" />
      <stop offset="100%" stop-color="#7c3aed" />
    </linearGradient>
  </defs>
  <!-- Rounded background rectangle -->
  <rect x="0" y="0" width="24" height="24" rx="6" fill="url(#smart-cv-gradient)" />
  <!-- FileText path centered and scaled -->
  <g transform="translate(4.8, 4.8) scale(0.6)" fill="none" stroke="white" stroke-width="2" stroke-linecap="round" stroke-linejoin="round">
    <path d="M15 2H6a2 2 0 0 0-2 2v16a2 2 0 0 0 2 2h12a2 2 0 0 0 2-2V7Z" />
    <path d="M14 2v4a2 2 0 0 0 2 2h4" />
    <path d="M10 9H8" />
    <path d="M16 13H8" />
    <path d="M16 17H8" />
  </g>
</svg>
